<?xml version="1.0" encoding="UTF-8"?>
<svg width="53px" height="22px" viewBox="0 0 53 22" version="1.1" xmlns="http://www.w3.org/2000/svg" xmlns:xlink="http://www.w3.org/1999/xlink">
    <!-- Generator: Sketch 50.2 (55047) - http://www.bohemiancoding.com/sketch -->
    <title>Aerie</title>
    <desc>Created with Sketch.</desc>
    <defs></defs>
    <g id="Header---3-Logos" stroke="none" stroke-width="1" fill="none" fill-rule="evenodd">
        <g id="1024---PTC" transform="translate(-256.000000, -71.000000)" fill="#333">
            <g id="Logos" transform="translate(26.000000, 70.000000)">
                <path d="M272.526133,4.54990683 C272.618912,4.62037306 273.153672,4.63514824 273.257687,4.6418539 C273.529795,4.65856121 273.95164,4.10437841 274.118397,3.89559379 C274.374152,3.57644996 274.64715,3.25741978 274.887108,2.92600119 C275.099365,2.49706643 275.354341,2.13143762 275.31407,1.61385179 C275.284033,1.23367511 275.078451,1.02830015 274.75962,1 C273.916486,1.43120787 272.923392,2.3634079 272.530583,3.36266451 C272.424676,3.63305025 272.240675,4.33305269 272.526133,4.54990683 M236.770429,16.0091934 C236.770429,16.0091934 237.744611,14.4939421 237.9928,13.8945246 C238.111278,13.6067496 238.446684,12.6921661 238.506423,12.4915646 C238.696654,11.8564593 238.866304,11.5520907 238.546695,10.9325561 C238.381494,10.6136396 237.738492,10.8776607 237.597655,11.0620094 C237.239108,11.5315191 236.761084,12.0175088 236.452933,12.4262129 C236.043102,12.9335698 235.7849,13.2909017 235.497107,13.6803981 C235.043445,14.2937953 234.604357,14.9195809 234.201535,15.5693477 C234.043788,15.8235944 233.841765,16.1281904 233.715056,16.3974396 C233.612821,16.614862 233.218454,17.279745 233.115329,17.4506824 C232.758896,18.0414622 232.414256,18.6587236 232.099541,19.2734847 C231.808188,19.8427836 231.48257,20.4985742 231.368655,21.1336795 C231.260635,21.7365067 231.399581,22.5801694 232.004092,22.1844219 C232.267523,22.0125752 232.62885,21.7750359 232.847226,21.5476118 C233.056257,21.3292801 233.625281,20.8214686 233.81807,20.5871116 C234.374634,19.9098402 234.711153,19.3764563 235.063136,18.7769251 C235.713146,17.6714008 236.073361,17.0738017 236.770429,16.0091934 M246.541726,13.942828 C246.65019,14.1793445 247.714704,13.6227749 248.042324,13.4118309 C248.501658,13.1154181 248.977347,12.6732993 249.405755,12.3411988 C249.773423,12.0566061 250.137977,11.7312113 250.504755,11.4012702 C250.933497,11.0151835 251.353896,10.6756953 251.281808,9.96921456 C251.24799,9.63472728 250.245552,10.2449421 250.079906,10.3520053 C246.574988,12.6205633 246.376748,13.7891662 246.541726,13.942828 M276.764496,12.6689804 C277.276339,12.3390393 277.786513,12.0058023 278.253969,11.6128962 C278.723984,11.217717 279.166187,10.7871911 279.647103,10.4067871 C280.228475,9.94716545 280.676908,9.40230237 280.735535,8.84664205 C280.820861,8.04048565 278.286787,9.8719257 278.069746,10.0512736 C277.268774,10.7142245 276.074437,11.3649005 275.823911,12.4178024 C275.729463,12.8157093 276.353998,12.9335698 276.764496,12.6689804 M282.049684,10.2401686 C282.10197,10.2607402 282.058362,10.2224384 282.049684,10.2401686 M282.070821,15.3419237 C281.47432,15.9907812 280.927212,16.4618821 280.268746,17.0340224 C279.073408,18.0738539 278.137717,18.8640986 276.842368,19.8020951 C275.567266,20.7253163 274.007374,21.7278689 272.535589,20.9276226 C271.802255,20.5284655 271.167707,19.8746071 270.935203,19.1059569 C270.614258,18.043167 270.642848,16.8879755 270.542504,16.7825034 C270.178396,17.1451772 268.870365,18.7310084 268.603152,19.002758 C267.893625,19.7245822 267.749784,19.8351687 267.419049,20.1599953 C267.111454,20.4618636 266.507721,20.9874052 266.106123,21.1135625 C265.672152,21.2494942 265.245635,21.314164 264.806547,21.2107377 C264.562584,21.1777777 264.286249,20.9110289 264.123162,20.7472518 C263.793763,20.4159469 263.672171,19.9371175 263.632011,19.4971581 C263.547242,18.5717774 263.62834,18.2807064 263.397282,18.1296586 C263.357901,18.0903339 261.441465,20.0814596 261.231099,20.2555794 C260.088491,21.1990312 259.333464,21.6886579 258.372187,22.3330829 C257.782916,22.7288304 256.017664,22.9464801 255.43696,22.7350814 C254.305365,22.3233086 254.127037,21.0640089 254.126147,20.4140147 C254.125925,20.0319059 254.164972,19.7283328 254.26743,19.3620221 C254.377341,18.9666156 254.486028,18.5983727 254.62809,18.2164912 C254.923782,17.494667 255.356751,16.7501117 255.763133,16.0864789 C256.250057,15.2902105 257.427819,13.0517712 257.56098,12.778885 C257.717504,12.4573544 257.88415,12.2433417 257.97426,11.892829 C258.07694,11.495604 258.057249,11.3510346 257.609261,11.4391174 C257.340268,11.4917398 257.042574,11.495604 256.789489,11.6107368 C256.467766,11.7580339 256.349511,12.0787689 256.174187,12.3606338 C255.951361,12.7189887 255.669909,13.1110992 255.405032,13.4381989 C255.125248,13.7833698 253.376238,15.7649483 253.121262,16.1273948 C252.904777,16.4346048 250.869753,18.7333951 250.256787,19.2222262 C249.944853,19.4716994 249.362592,20.070435 249.053773,20.3263865 C248.676982,20.6381428 248.380289,20.7958962 247.966009,21.0551438 C247.690341,21.2280133 247.008069,21.6445597 246.647632,21.8408422 C243.045485,23.6867165 242.249853,22.6433617 242.064517,22.4877677 C240.859611,21.4740769 240.931254,18.9287684 240.696524,18.9809362 C240.380586,19.0515161 239.062987,20.4659551 238.749607,20.827947 C238.587522,21.0149098 237.563947,22.2876209 237.287389,22.4877677 C236.665969,22.9364784 235.9313,22.7154191 235.612914,21.9845024 C235.207422,21.0546891 235.441817,20.0417939 235.321783,19.9903081 C235.171823,20.0324742 234.620043,20.6280275 234.505682,20.7420237 C234.318455,20.9276226 233.150927,22.2947811 232.694485,22.55096 C232.191097,22.8339614 231.971052,23.1626523 231.222143,22.9093149 C230.916884,22.8060023 230.679708,22.3958206 230.466672,22.1545306 C230.162302,21.8100417 229.808429,20.4035584 230.122476,19.2701887 C230.348306,18.4561901 230.571465,17.2451938 230.936575,16.551897 C231.519838,15.4434178 231.8914,14.7875135 232.650654,13.7859838 C232.981055,13.350798 234.708817,11.611987 235.11887,11.3012536 C235.666979,10.8851619 236.204854,10.4427022 236.783111,10.070936 C237.215191,9.79270802 237.494084,9.62438465 238.010044,9.52482269 C238.301842,9.46879067 239.004138,9.41810045 240.029382,10.1142386 C240.171999,10.2105046 240.193136,10.0084256 240.342651,9.86624294 C240.818784,9.4105992 241.318167,9.26477957 242.065185,9.38457216 C242.396364,9.43742183 242.319048,10.1479942 242.207023,10.4563408 C241.944816,11.9679551 241.04517,13.1519014 240.154979,14.3392574 C239.072555,15.7841561 238.064443,17.3319127 237.324879,18.9934382 C237.063117,19.5813766 236.627589,20.785099 236.829056,21.4327064 C236.906372,21.6804747 237.594428,20.9323961 237.6258,20.890912 C237.867649,20.5730184 238.246775,20.2019341 238.479279,19.8797216 C238.909913,19.2830317 239.584843,18.4696014 240.00335,17.9720189 C240.421413,17.4750046 241.206365,16.7769343 241.657023,16.1844497 C242.780163,14.7070456 243.475673,13.8025775 244.633745,12.4978157 C244.928547,12.1654878 245.622388,11.4434363 246.104195,11.1145181 C246.425918,10.8951636 246.901607,10.5394227 247.300424,10.2435782 C247.980916,9.73792621 248.374171,9.47026819 249.093599,9.02826308 C252.162432,7.1451099 252.949053,8.00434329 253.101126,8.27768407 C253.230728,8.51215477 253.301036,8.82936646 253.333631,9.07327054 C253.410947,9.65404866 253.224832,10.5251022 253.004565,11.0587134 C252.715659,11.757011 251.987108,12.5327078 251.437887,13.023471 C250.938726,13.4695677 250.433001,13.8623601 249.90525,14.2961821 C249.16246,14.9076471 248.356149,15.3410144 247.629044,15.8129108 C246.955227,16.2495742 246.431147,16.7597724 245.824411,17.2936109 C245.240926,17.8079007 244.770132,18.4954011 244.296335,19.1070935 C243.971052,19.5272768 243.619292,20.7333859 244.470658,20.6857643 C245.257612,20.6424617 246.372965,20.4389052 247.931745,19.3994147 C249.547705,18.3216223 250.499638,17.3132733 251.178683,16.7094231 C251.755605,16.1957016 253.605405,14.270155 254.204798,13.5275319 C254.698063,12.9172034 255.337839,12.2605036 255.672245,11.4946948 C255.904416,10.9629021 254.671142,10.3042701 254.708409,9.40650762 C254.720646,9.11304986 254.833116,8.91619904 254.951927,8.6536555 C255.659118,7.08930519 257.365076,7.86000117 257.463751,8.41543418 C257.4949,8.58966762 257.513145,8.7419656 257.523046,8.90471986 C257.53328,9.08145371 257.452182,9.81066554 257.688468,9.84442114 C258.044345,9.89590695 258.466412,9.69905613 258.822622,9.66996039 C259.264602,9.63324976 259.708585,9.65723101 260.150566,9.62631679 C260.67854,9.58869692 261.452701,9.75031463 261.729259,10.2794933 C261.714685,10.3435948 262.18381,11.0151835 261.771866,11.7409856 C261.42044,12.3593836 260.573078,13.6165239 260.367273,13.863383 C259.917617,14.402336 259.810598,14.5109904 259.399989,15.0755158 C258.418131,16.4269899 257.768566,17.1451772 256.937669,18.754876 C256.596255,19.4143035 256.156833,20.0630474 256.173965,20.8426085 C256.180306,21.1509551 256.292775,21.4588471 256.579123,21.6027346 C256.821417,21.7241183 257.270406,21.7174127 257.685799,21.5134016 C257.979933,21.3686048 258.363287,21.162207 258.723947,20.9225081 C259.030207,20.7195199 259.739734,20.1011219 260.004389,19.8447158 C260.50444,19.3606582 260.657848,19.3146279 261.174363,18.8357985 C261.765859,18.2866165 262.237097,17.7611885 262.778643,17.1644986 C263.271685,16.6215677 263.735581,16.1159156 264.148971,15.4606933 C264.62377,14.709887 264.960289,14.1243354 265.397931,13.4802513 C265.601622,13.1800879 265.749023,12.8195736 265.905992,12.4896325 C266.086878,12.110706 267.738325,9.73838083 267.983623,9.44958294 C268.425603,8.93086056 268.84667,8.34985513 269.381429,7.92705775 C269.605145,7.75009658 269.8332,7.72907037 270.070599,7.60427695 C270.359282,7.45300186 270.628053,7.4069715 270.932199,7.44436407 C271.419346,7.37492073 271.880572,7.77169107 271.571975,8.29518697 C270.88136,9.46640391 270.241361,10.7041091 269.546185,11.8274772 C269.065713,12.6045379 268.581125,13.3817122 268.083188,14.147521 C267.63164,14.842068 267.361201,15.6340175 266.926785,16.3316332 C266.671142,16.7410193 266.456215,17.1629074 266.310705,17.6283255 C266.247406,17.8308591 266.031143,18.420275 266.199681,18.6189443 C266.577139,19.0642454 267.464994,18.5140406 267.776038,18.2512697 C268.366977,17.7513005 269.153375,17.0499341 269.65554,16.4518804 C270.061699,15.9691868 271.288409,14.4051774 271.704358,13.8116699 C273.000931,11.9607948 276.234965,9.29933075 276.507962,9.08384047 C277.504505,8.29575525 278.94592,7.37878501 279.744333,6.96746681 C280.26107,6.70174093 281.183078,6.09095783 281.823521,6.22291153 C282.547399,6.37305006 282.909728,6.93439314 282.974362,7.5214223 C283.072258,8.41009239 282.781461,8.93347463 282.668769,9.2459128 C282.1359,10.7300225 280.706055,11.9893223 279.508046,12.9416393 C278.19067,13.9890857 276.830354,14.6416939 275.426206,15.5315005 C275.047524,15.7714267 274.585186,16.1726296 274.274476,16.5025707 C274.006929,16.7864814 273.160013,17.6292348 273.259355,19.3022394 C273.315646,20.2445548 275.962634,18.8785328 276.368905,18.4514165 C276.501621,18.3123026 278.498822,16.7046496 279.602049,15.4860385 C280.220466,14.8035389 280.76368,14.0467089 281.446953,13.4549062 C281.70382,13.2327103 282.35105,12.930842 282.757321,13.2772631 C283.439259,13.8590641 282.513135,14.8609348 282.070821,15.3419237 M244.919202,22.7525843 C244.900401,22.7767929 244.90563,22.778384 244.930438,22.7941821 C244.968373,22.7686097 244.941674,22.7515614 244.919202,22.7525843 M282.049684,10.2401686 C282.10197,10.2607402 282.058362,10.2224384 282.049684,10.2401686 M242.147507,9.50970655 C242.136271,9.52675483 242.100561,9.47720116 242.131042,9.534938 C242.155405,9.54130269 242.152179,9.53152835 242.147507,9.50970655 M242.177988,9.64359238 C242.18266,9.61483762 242.173204,9.60335844 242.149843,9.6100641 C242.122365,9.63734135 242.156406,9.67564315 242.177988,9.64359238" id="Aerie"></path>
            </g>
        </g>
    </g>
</svg>