<?xml version="1.0" encoding="UTF-8" standalone="no"?> <svg width="64" height="64" viewBox="0 0 64 64" fill="none" xmlns="http://www.w3.org/2000/svg">
<path d="M32 2.75C26.2149 2.75 20.5597 4.46548 15.7496 7.67951C10.9394 10.8935 7.1904 15.4618 4.97654 20.8065C2.76267 26.1512 2.18343 32.0324 3.31204 37.7064C4.44066 43.3803 7.22645 48.5922 11.3171 52.6829C15.4078 56.7736 20.6197 59.5594 26.2936 60.688C31.9676 61.8166 37.8488 61.2373 43.1935 59.0235C48.5382 56.8096 53.1065 53.0606 56.3205 48.2504C59.5345 43.4403 61.25 37.7851 61.25 32C61.2421 24.2449 58.1578 16.8096 52.6741 11.3259C47.1904 5.84218 39.7552 2.75794 32 2.75V2.75ZM32 5.25C37.0314 5.24642 41.9617 6.66299 46.2239 9.33678C50.486 12.0106 53.907 15.833 56.0934 20.3646C58.2798 24.8961 59.1428 29.9528 58.5832 34.953C58.0236 39.9532 56.0641 44.6939 52.93 48.63C51.5544 45.4688 49.4786 42.6615 46.8593 40.4198C44.24 38.1782 41.1457 36.5609 37.81 35.69C39.7158 34.4394 41.1672 32.6073 41.9485 30.4659C42.7298 28.3245 42.7993 25.9882 42.1467 23.8042C41.4941 21.6201 40.1542 19.7049 38.3262 18.3433C36.4981 16.9816 34.2795 16.2461 32 16.2461C29.7206 16.2461 27.5019 16.9816 25.6739 18.3433C23.8458 19.7049 22.5059 21.6201 21.8533 23.8042C21.2007 25.9882 21.2702 28.3245 22.0515 30.4659C22.8328 32.6073 24.2842 34.4394 26.19 35.69C22.8543 36.5609 19.76 38.1782 17.1407 40.4198C14.5215 42.6615 12.4457 45.4688 11.07 48.63C7.93596 44.6939 5.97647 39.9532 5.41686 34.953C4.85726 29.9528 5.72027 24.8961 7.90665 20.3646C10.093 15.833 13.514 12.0106 17.7762 9.33678C22.0383 6.66299 26.9686 5.24642 32 5.25V5.25ZM32 34.93C30.4 34.93 28.8358 34.4555 27.5054 33.5666C26.1751 32.6776 25.1381 31.4142 24.5258 29.9359C23.9135 28.4577 23.7533 26.831 24.0655 25.2617C24.3776 23.6924 25.1481 22.2509 26.2795 21.1195C27.4109 19.9881 28.8524 19.2176 30.4217 18.9054C31.991 18.5933 33.6177 18.7535 35.0959 19.3658C36.5742 19.9781 37.8377 21.015 38.7266 22.3454C39.6155 23.6758 40.09 25.2399 40.09 26.84C40.0874 28.9848 39.2342 31.041 37.7176 32.5576C36.201 34.0742 34.1448 34.9274 32 34.93V34.93ZM32 58.75C28.4487 58.7544 24.9323 58.049 21.6574 56.6752C18.3825 55.3013 15.4153 53.2868 12.93 50.75C14.3658 46.8479 16.9641 43.4802 20.3742 41.1013C23.7843 38.7224 27.8421 37.4469 32 37.4469C36.1579 37.4469 40.2157 38.7224 43.6258 41.1013C47.0359 43.4802 49.6342 46.8479 51.07 50.75C48.5847 53.2868 45.6175 55.3013 42.3426 56.6752C39.0678 58.049 35.5514 58.7544 32 58.75V58.75Z" fill="black"/>
</svg>
