<?xml version="1.0" encoding="UTF-8" standalone="no"?> <svg width="512" height="512" viewBox="0 0 512 512" fill="none" xmlns="http://www.w3.org/2000/svg">
<path d="M344.479 52.9C397.45 79.2793 432 126.619 432 199.667C432 257.366 407.764 304.128 374.901 333.788C343.225 362.376 298.946 378.359 260.262 363.68C247.936 359.003 237.589 352.199 228.968 344.096L205.402 434.584C201.685 449.392 177.654 482.695 166.302 479.826C154.531 476.851 150.815 435.573 154.531 420.765L196.152 250.336C183.902 209.629 188.284 172.03 216.939 152.823C222.666 148.984 230.372 146.107 239.35 146.777C248.144 147.433 255.16 151.268 260.156 155.415C268.336 162.205 271.894 173.059 269.311 183.348L248.212 276.63C249.762 283.043 251.802 289.145 254.353 294.695C260.646 308.383 269.207 317.137 280.018 321.239C292.196 325.86 314.973 322.496 337.638 302.04C359.116 282.655 376.505 241.462 376.505 199.667C376.505 148.347 350.434 113.942 315.543 96.5665C279.68 78.7067 233.829 78.6122 195.661 99.5278C158.317 119.992 142.801 151.438 138.593 182.158C134.141 214.661 136.033 241.123 154.531 259.548C160.579 265.572 154.531 285.482 145.282 301.004C132.621 309.603 112.281 289.241 103.648 276.63C93.7924 262.241 83.8707 219.709 89.7714 176.633C95.9164 131.774 117.668 83.234 173.031 52.8962C227.349 23.1307 292.481 27.0046 344.479 52.9Z" fill="black"/>
</svg>
