<?xml version="1.0" encoding="utf-8"?>
<!-- Generator: Adobe Illustrator 22.1.0, SVG Export Plug-In . SVG Version: 6.00 Build 0)  -->
<svg version="1.1" id="Layer_1" xmlns="http://www.w3.org/2000/svg" xmlns:xlink="http://www.w3.org/1999/xlink" x="0px" y="0px"
	 viewBox="0 0 1254.2 36.7" style="enable-background:new 0 0 1254.2 36.7;" xml:space="preserve" width="900px">
<style type="text/css">
	#Layer_1{width:900px}
	.st0{fill:#231F20;}
	.st1{fill:#231F20;stroke:#000000;stroke-width:0.25;stroke-miterlimit:10;}
	.st2{clip-path:url(#SVGID_2_);fill:#231F20;}
	.st3{clip-path:url(#SVGID_4_);fill:#231F20;}
	.st4{clip-path:url(#SVGID_6_);fill:#231F20;}
	.st5{clip-path:url(#SVGID_8_);fill:#231F20;}
	.st6{clip-path:url(#SVGID_10_);fill:#231F20;}
	.st7{clip-path:url(#SVGID_12_);fill:#231F20;}
	.st8{fill:#FFFFFF;}
</style>
<path d="M283.2,30.6v-1.5h1.5c0.7,0,1.1-0.6,0.9-1.2l-1.5-3.8h-6.6l-1.5,3.8c-0.2,0.6,0.2,1.2,1,1.2h1.5v1.5H271v-1.5h1.2
	c0.7,0,1.4-0.4,1.7-1.2l7.2-18h1.5l7.1,18c0.4,0.9,1.1,1.2,1.7,1.2h1.2v1.5H283.2z M280.9,15.8l-2.6,6.5h5.2L280.9,15.8z"/>
<path d="M296.2,30.6v-1.5h1.5c0.7,0,1.2-0.5,1.2-1.2v-15c0-0.6-0.5-1.2-1.2-1.2h-1.5v-1.5h17.2v6.7h-1.6v-0.7c0-2.4-1.9-4.3-4.2-4.3
	h-4.7v7.4h2c1.3,0,2.4-1.1,2.4-2.4v-0.8h1.5v8.2h-1.5v-0.8c0-1.3-1.1-2.4-2.4-2.4h-2v7.6h5.2c2.4,0,4.3-1.9,4.3-4.3V23h1.5v7.5
	L296.2,30.6L296.2,30.6z"/>
<path d="M327.9,30.9c-6.6,0-10.5-4.3-10.5-10.5s4-10.5,10.5-10.5c6,0,10.5,4,10.5,10.5S333.9,30.9,327.9,30.9 M327.9,11.6
	c-4.8,0-6.1,3.8-6.1,8.8s1.4,8.8,6.1,8.8c4.8,0,6.2-3.8,6.2-8.8S332.6,11.6,327.9,11.6"/>
<path d="M341.7,16.2c-1.6,0-2.9-1.3-2.9-2.9s1.3-2.9,2.9-2.9s2.9,1.3,2.9,2.9S343.3,16.2,341.7,16.2 M341.7,10.6
	c-1.5,0-2.6,1.2-2.6,2.7s1.1,2.6,2.6,2.6s2.6-1.2,2.6-2.7C344.3,11.7,343.2,10.6,341.7,10.6 M342.3,13.5l0.8,1.2h-0.6l-0.7-1.1h-0.6
	v1.1h-0.7v-3.1h1.4c0.7,0,1.2,0.4,1.2,1C343,13.1,342.7,13.4,342.3,13.5 M341.8,12.1H341v1h0.8c0.4,0,0.6-0.2,0.6-0.5
	S342.2,12.1,341.8,12.1"/>
<path d="M397.1,16.2c-1.6,0-2.9-1.3-2.9-2.9s1.3-2.9,2.9-2.9s2.9,1.3,2.9,2.9S398.8,16.2,397.1,16.2 M397.1,10.6
	c-1.5,0-2.6,1.2-2.6,2.7s1.1,2.6,2.6,2.6s2.6-1.2,2.6-2.7S398.6,10.6,397.1,10.6 M397.8,13.5l0.8,1.2h-0.7l-0.7-1.1h-0.7v1.1h-0.6
	v-3.1h1.4c0.7,0,1.2,0.4,1.2,1C398.5,13.1,398.2,13.4,397.8,13.5 M397.3,12.1h-0.8v1h0.8c0.4,0,0.6-0.2,0.6-0.5
	S397.7,12.1,397.3,12.1"/>
<path d="M389.8,14.6c0.9,0,2-0.3,2.4-0.7c-0.4,0.7-0.9,1.2-2.2,1.6c-0.4,0.2-0.4,0.4,0.1,0.4s1.1-0.4,1.3-0.5
	c-0.3,0.4-0.5,0.8-1.8,1c-0.3,0.1-0.2,0.5,0.5,0.2c-0.2,0.2-0.5,0.3-0.8,0.4c-0.4,0.1-0.3,0.4,0.4,0.3c-0.4,0.3-0.9,0.3-1.2,0.4
	c-0.3,0.1-0.1,0.4,0.6,0.3c-0.3,0.2-0.5,0.3-1.2,0.3c-0.1,0-0.1,0-0.2,0.1c-0.5,0.1-1.1,0.2-1.4,0.5c-0.5,0.5-0.9,1.8-1.2,2.6
	c-0.3,0.8-1.7,3.1-3.5,2.8c0.1,0.2,0.2,0.5,0.3,0.6c0.2,0.5,0.7,1.8,1.9,2.6c1,0.6,1.5,0.9,1.5,1.5c0,0.3-0.1,0.2-0.3,0.2
	c-0.2,0-0.4,0-0.4,0.2s-0.2,0.3-0.4,0.2c-0.2-0.1-0.4,0-0.5,0.2s-0.1,0.1-0.3,0.1c-0.2,0-0.3,0-0.4,0.1s-0.3,0.1-0.5,0
	s-0.3-0.1-0.5,0s-0.3-0.1-0.5-0.2c-0.1-0.1-0.2-0.2-0.4-0.1c-0.2,0.1-0.3-0.1-0.4-0.2s-0.2-0.2-0.3-0.2c-0.2,0-0.4-0.1-0.5-0.4
	c0-0.2-0.2-0.3-0.3-0.3c-0.2,0-0.3,0.1-0.3-0.1c-0.1-0.1,0-0.3,0.2-0.5s0.5-0.6,0.5-1c0-0.3-0.7-0.2-0.7,0.7c-0.1,0-0.2-0.1-0.2-0.2
	c-0.2,0.3-0.3,0.7-0.2,0.9c-0.1-0.1-0.2-0.3-0.2-0.3s-0.5,0.4-0.6,0.9c-0.1-0.5-0.3-0.3-0.3-0.3l-0.1,0.1c-0.1,0.3,0,0.6,0.1,0.6
	s0.3,0.1,0.5,0.2c0.1,0.2,0.3,0.5,0,0.8c0.1-0.2,0-0.4-0.1-0.4c-0.3,0.1-0.6-0.2-0.7-0.3c-0.1-0.1-0.5,0-0.7,0
	c-0.2,0.1-0.5,0.3-0.5,0.6c-0.1-0.1-0.3-0.4-0.1-0.6c-0.1,0-0.4,0.2-0.4,0.3c-0.1-0.1-0.2-0.3,0-0.5c-0.1,0-0.4,0.1-0.4,0.3
	c-0.5-0.6,0.8-0.8,1.1-0.8c0-0.1-0.1-0.2-0.2-0.3c-0.2,0-0.5-0.2-0.6-0.3c-0.5-0.3-0.9-0.2-0.9,0c-0.1-0.1-0.2-0.3,0.1-0.5
	c-0.2-0.1-0.3,0-0.5,0.2c0,0,0-0.4,0.3-0.5c-0.1-0.1-0.5-0.1-0.6,0.1c0.3-0.8,1.3-0.1,1.6,0.1c0.3,0.1,0.5-0.3,0.5-0.7
	c0.1-0.3,0.1-0.4,0.2-0.6c0.1-0.1,0.1-0.2,0.1-0.2c0-0.1,0.1-0.1,0.1-0.1c0.1-0.1,0.1-0.3,0.2-0.5c0.2-0.6,0.5-1.4,0-1.9
	c-0.4-0.4-0.9-0.4-1.2-0.3c-0.2,0-0.5,0.1-0.8,0.2c-0.2,0.1-0.5,0.2-0.6,0.2c-0.1-0.1,0-0.2,0.1-0.3c-0.2-0.1-0.4,0.1-0.4,0.5
	c-0.4-0.5-0.3-1,0-1.2c-0.3-0.5,0.3-1,0.8-1.2c0.4-0.2,1.4-0.4,1.1-1.1c-0.2-0.4-0.4-0.8-0.8-1.2c-0.6-0.6-1.4-1.1-2.1-1.5
	s-1.4-0.6-2.1-0.9c-0.2-0.1-0.4-0.2-0.5-0.3c0.3,0.1,0.7,0,0.4-0.1c-0.3-0.2-0.7-0.5-0.9-0.8c0.4,0.2,0.7,0.2,0.5,0
	c-0.3-0.2-0.8-0.6-1-1.1c0.3,0.3,0.9,0.5,0.7,0.3c-0.2-0.2-1.4-1.3-0.8-3.2c0.1,1.1,0.3,1.2,0.4,1.3c-0.2-1.2,0-2.2,0.2-2.5
	c0,1.1,0.2,1.4,0.4,1.7c-0.2-1.2,0.2-2,0.4-2.2c-0.2,1.3-0.1,2.7,1.2,3.4c0-0.3,0-0.5,0-0.5s0,0.3,0.4,0.6c0.3,0.3,1.7,1.1,2.6,1.9
	c1,0.7,1.7,1.5,2.3,2.7c0.6,1.2,1.2,2.4,1.8,2.7c0,0,1.5,0,2.2-3.2c0.3-1.2,1.4-3.1,3.5-3.9c1.7-0.6,3.9-1.8,4.5-2.7
	c0,0.5-0.3,1.2-0.8,1.6c1-0.3,2.3-1.3,2.7-2.1c-0.1,0.9-1,2.1-2,2.6c1.5-0.4,2.8-1.5,3.2-2.2c0.1,0.8-1.2,2.3-2,2.6
	c1-0.2,1.8-0.5,2.4-1.1C392.2,13.2,391.5,14.1,389.8,14.6 M377.2,28c0-0.2-0.5,0-0.7,0.3c0.1,0.1,0.3,0.3,0.2,0.5
	c0.1,0.1,0.1,0.3,0.1,0.3C377.2,29,377.2,28.2,377.2,28"/>
<path d="M562.1,15.7c-1.6,0-2.9-1.3-2.9-2.9s1.3-2.9,2.9-2.9c1.6,0,2.9,1.3,2.9,2.9S563.8,15.7,562.1,15.7 M562.1,10.1
	c-1.5,0-2.6,1.2-2.6,2.7s1.1,2.6,2.6,2.6s2.6-1.2,2.6-2.7C564.8,11.3,563.6,10.1,562.1,10.1 M562.8,13.1l0.8,1.2h-0.7l-0.7-1.1h-0.7
	v1.1h-0.6v-3.1h1.4c0.7,0,1.2,0.4,1.2,1C563.5,12.6,563.2,12.9,562.8,13.1 M562.3,11.7h-0.8v1h0.8c0.4,0,0.6-0.2,0.6-0.5
	C562.9,11.8,562.7,11.7,562.3,11.7"/>
<path d="M433.3,18.9c-0.3,0-0.6-0.2-0.8-0.6l-3.4-8.6h-0.8l-3.4,8.6c-0.2,0.4-0.5,0.6-0.8,0.6h-0.6v0.7h3.6v-0.7h-0.6
	c-0.3,0-0.6-0.3-0.4-0.6l0.7-1.8h3.1l0.8,1.8c0.1,0.3-0.1,0.6-0.5,0.6h-0.7v0.7h4.5v-0.7C433.9,18.9,433.3,18.9,433.3,18.9z
	 M427,15.7l1.3-3.1l1.2,3.1C429.5,15.7,427,15.7,427,15.7z"/>
<path d="M443.3,19.6v-0.7h0.7c0.3,0,0.6-0.3,0.6-0.6v-6l-3.3,7.3h-0.9l-3.3-7.3v6c0,0.3,0.3,0.6,0.6,0.6h0.7v0.7h-3.5v-0.7h0.7
	c0.3,0,0.6-0.3,0.6-0.6v-7.1c0-0.3-0.3-0.6-0.6-0.6h-0.7V9.9h3.1l3.2,7.3l3.3-7.3h3.2v0.8H447c-0.3,0-0.6,0.3-0.6,0.6v7.1
	c0,0.3,0.3,0.6,0.6,0.6h0.7v0.7L443.3,19.6L443.3,19.6z"/>
<path d="M448.9,19.6v-0.7h0.7c0.3,0,0.6-0.3,0.6-0.6v-7.1c0-0.3-0.2-0.6-0.6-0.6h-0.7V9.9h8.2v3.2h-0.8v-0.3c0-1.1-0.9-2-2-2h-2.2
	v3.5h1c0.6,0,1.1-0.5,1.1-1.1v-0.4h0.8v3.9h-0.8v-0.4c0-0.6-0.5-1.1-1.1-1.1h-1v3.7h2.5c1.1,0,2-1,2-2v-0.7h0.8v3.6h-8.5V19.6z"/>
<path d="M457,22.2c-2.5,0-4.1,1.7-4.1,4.1s1.5,4.1,4.1,4.1c2.3,0,4.1-1.6,4.1-4.1C461.1,23.7,459.3,22.2,457,22.2 M457,29.6
	c-1.8,0-2.4-1.5-2.4-3.4s0.6-3.4,2.4-3.4s2.3,1.5,2.3,3.4S458.9,29.6,457,29.6"/>
<path d="M469.5,22.9c-0.3,0-0.4,0.3-0.4,0.5v4.1c0,1.7-1.4,2.8-3.1,2.8s-3.1-1.1-3.1-2.8v-4.1c0-0.3-0.2-0.5-0.4-0.5h-0.7v-0.6h3.8
	v0.6h-0.7c-0.2,0-0.4,0.3-0.4,0.5v4.1c0,1.2,0.9,1.8,2,1.8s1.9-0.6,1.9-1.8v-4.1c0-0.3-0.2-0.5-0.4-0.5h-0.7v-0.6h3v0.6H469.5z"/>
<path d="M467.8,18.9c-0.4,0-0.7-0.3-1-0.6l-2-3.2c1.4-0.1,2.3-1.2,2.3-2.6c0-1.5-1.1-2.6-2.5-2.6h-6v0.8h0.7c0.4,0,0.6,0.3,0.6,0.6
	v7.1c0,0.3-0.2,0.6-0.6,0.6h-0.7v0.7h4.4V19h-0.5c-0.3,0-0.6-0.3-0.6-0.6v-3.2h0.8l2.8,4.5h2.7V19L467.8,18.9L467.8,18.9z
	 M461.9,14.2v-3.4h1.8c1,0,1.6,0.8,1.6,1.7c0,1-0.6,1.7-1.6,1.7C463.7,14.2,461.9,14.2,461.9,14.2z"/>
<path d="M469.3,19.6v-0.7h0.7c0.3,0,0.6-0.3,0.6-0.6v-7.1c0-0.3-0.3-0.6-0.6-0.6h-0.7V9.9h4.4v0.8H473c-0.3,0-0.6,0.3-0.6,0.6v7.1
	c0,0.3,0.2,0.6,0.6,0.6h0.7v0.7L469.3,19.6L469.3,19.6z"/>
<path d="M477.5,24.9v-0.3c0-1-0.8-1.7-1.7-1.7h-0.6V29c0,0.3,0.2,0.4,0.4,0.4h0.6V30h-3.6v-0.6h0.6c0.3,0,0.4-0.2,0.4-0.4v-6H473
	c-0.9,0-1.6,0.7-1.6,1.7V25h-0.6v-2.6h7.2V25h-0.5V24.9z"/>
<path d="M479.6,19.8c-3.1,0-5-2.1-5-5c0-3,1.8-5,5-5c2.2,0,3.6,0.6,3.6,0.6v2.7h-0.8c-0.2-1.5-1.1-2.5-2.8-2.5c-2,0-2.9,2-2.9,4.2
	s1,4.1,2.9,4.1c1.7,0,2.5-1,2.8-2.7h0.8v2.9C483.2,19.1,482,19.8,479.6,19.8"/>
<path d="M484.9,24.9v-0.3c0-1-0.8-1.7-1.7-1.7h-1.8v2.9h0.7c0.6,0,0.9-0.4,0.9-1v-0.3h0.6v3.2H483v-0.3c0-0.5-0.4-0.9-0.9-0.9h-0.7
	V29c0,0.3,0.2,0.4,0.4,0.4h0.9V30h-3.9v-0.6h0.6c0.3,0,0.4-0.2,0.4-0.4v-5.7c0-0.3-0.2-0.5-0.4-0.5h-0.6v-0.6h6.6v2.6L484.9,24.9
	L484.9,24.9z"/>
<path d="M486.4,30.2v-0.6h0.6c0.3,0,0.4-0.2,0.4-0.4v-5.7c0-0.3-0.2-0.5-0.4-0.5h-0.6v-0.6h3.6V23h-0.5c-0.3,0-0.5,0.3-0.5,0.5v5.7
	c0,0.3,0.3,0.4,0.5,0.4h0.6v0.6C490,30.2,486.4,30.2,486.4,30.2z"/>
<path d="M493.6,18.9c-0.3,0-0.6-0.2-0.8-0.6l-3.4-8.6h-0.7l-3.4,8.6c-0.1,0.4-0.5,0.6-0.8,0.6h-0.6v0.7h3.6v-0.7h-0.7
	c-0.3,0-0.5-0.3-0.4-0.6l0.7-1.8h3.2l0.7,1.8c0.1,0.3-0.1,0.6-0.4,0.6h-0.7v0.7h4.5v-0.7H493.6L493.6,18.9z M487.4,15.7l1.2-3.1
	l1.3,3.1C489.9,15.7,487.4,15.7,487.4,15.7z"/>
<path d="M497.5,24.9v-0.3c0-1-0.7-1.7-1.7-1.7h-0.6V29c0,0.3,0.3,0.4,0.5,0.4h0.6V30h-3.6v-0.6h0.6c0.3,0,0.4-0.2,0.4-0.4v-6h-0.6
	c-0.9,0-1.6,0.7-1.6,1.7V25h-0.6v-2.6h7.3V25h-0.7V24.9z"/>
<path d="M505.1,10.7c-0.3,0-0.6,0.3-0.6,0.6v8.6h-1l-6.1-7.6v6.2c0,0.3,0.3,0.6,0.6,0.6h0.8v0.7h-3.9v-0.7h1c0.3,0,0.6-0.3,0.6-0.6
	v-7.1c0-0.3-0.3-0.6-0.6-0.6h-1V9.9h3l5.5,6.9v-5.5c0-0.3-0.3-0.6-0.6-0.6h-1V9.9h3.9v0.8H505.1z"/>
<path d="M505.6,24.9v-0.3c0-1-0.7-1.7-1.7-1.7h-0.6V29c0,0.3,0.3,0.4,0.4,0.4h0.6V30h-3.6v-0.6h0.6c0.3,0,0.4-0.2,0.4-0.4v-6h-0.6
	c-0.9,0-1.7,0.7-1.7,1.7V25h-0.6v-2.6h7.3V25h-0.5L505.6,24.9L505.6,24.9z"/>
<path d="M507,30.2v-0.6h0.6c0.3,0,0.4-0.2,0.4-0.4v-5.7c0-0.3-0.2-0.5-0.4-0.5H507v-0.6h6.6V25H513v-0.3c0-1-0.8-1.7-1.7-1.7h-1.8
	v2.9h0.8c0.5,0,1-0.4,1-1v-0.3h0.6v3.2h-0.6v-0.3c0-0.5-0.4-0.9-1-0.9h-0.8v2.9h2c0.9,0,1.7-0.8,1.7-1.7v-0.6h0.6v2.9H507V30.2z"/>
<path d="M510.4,19.6v-0.7h0.7c0.3,0,0.5-0.3,0.5-0.6v-7.1c0-0.3-0.2-0.6-0.5-0.6h-0.7V9.9h8.1v3.2h-0.7v-0.3c0-1.1-0.9-2-2.1-2h-2.2
	v3.5h1c0.6,0,1.1-0.5,1.1-1.1v-0.4h0.8v3.9h-0.8v-0.4c0-0.6-0.5-1.1-1.1-1.1h-1v3.7h2.5c1.1,0,2-1,2-2v-0.7h0.8v3.6h-8.4L510.4,19.6
	L510.4,19.6z"/>
<path d="M522.3,29.5c-0.3,0-0.6-0.1-0.8-0.4l-1.7-2.6c1.1-0.1,1.9-1,1.9-2.1s-0.9-2.1-2-2.1h-4.8v0.6h0.6c0.3,0,0.5,0.3,0.5,0.5v5.7
	c0,0.3-0.3,0.4-0.5,0.4h-0.6v0.6h3.6v-0.6h-0.6c-0.3,0-0.4-0.2-0.4-0.4v-2.6h0.6l2.3,3.7h2.2v-0.6L522.3,29.5L522.3,29.5z
	 M518.7,25.8h-1.4V23h1.4c0.8,0,1.3,0.6,1.3,1.4C520,25.1,519.4,25.8,518.7,25.8"/>
<path d="M529.4,18.9c-0.4,0-0.7-0.2-0.8-0.6l-3.4-8.6h-0.7l-3.4,8.6c-0.1,0.4-0.5,0.6-0.8,0.6h-0.6v0.7h3.6v-0.7h-0.7
	c-0.3,0-0.6-0.3-0.4-0.6l0.7-1.8h3.1l0.7,1.8c0.1,0.3-0.1,0.6-0.4,0.6h-0.8v0.7h4.5v-0.7H529.4z M523.1,15.7l1.2-3.1l1.3,3.1
	C525.6,15.7,523.1,15.7,523.1,15.7z"/>
<path d="M526.4,30.3c-1.8,0-2.9-0.6-2.9-0.6v-2.4h0.6c0.2,1.5,0.9,2.3,2.3,2.3c0.8,0,1.5-0.5,1.5-1.3c0-2.1-4.4-0.7-4.4-3.9
	c0-1.6,1.3-2.2,2.5-2.2c1.7,0,2.6,0.6,2.6,0.6v2H528c-0.3-1.2-0.8-1.9-2-1.9c-0.7,0-1.3,0.4-1.3,1.1c0,2,4.4,0.9,4.4,4
	C529.1,29.7,527.9,30.3,526.4,30.3"/>
<path d="M539.1,15.5c-0.3,0-0.6,0.3-0.6,0.6v0.3v2.4v0.1c0,0-1.5,0.9-3.7,0.9c-3.1,0-5-2.1-5-5c0-3,1.9-5,5-5c2.2,0,3.6,0.6,3.6,0.6
	v2.7h-0.8c-0.3-1.5-1.1-2.5-2.8-2.5c-2,0-2.9,2-2.9,4.2s1,4.1,2.9,4.1c0.9,0,1.5-0.2,1.9-0.6v-2.2c0-0.3-0.2-0.6-0.6-0.6h-0.8v-0.8
	h4.4v0.8C539.6,15.5,539.1,15.5,539.1,15.5z"/>
<path d="M540.4,19.6v-0.7h0.7c0.3,0,0.6-0.3,0.6-0.6v-7.1c0-0.3-0.3-0.6-0.6-0.6h-0.7V9.9h4.8v0.8h-1.1c-0.3,0-0.6,0.3-0.6,0.6v7.6
	h2.3c1.1,0,2-1,2-2v-0.7h0.7v3.6h-8.1L540.4,19.6L540.4,19.6z"/>
<path d="M549.6,19.6v-0.7h0.7c0.3,0,0.5-0.3,0.5-0.6v-7.1c0-0.3-0.3-0.6-0.5-0.6h-0.7V9.9h8.1v3.2H557v-0.3c0-1.1-1-2-2.1-2h-2.2
	v3.5h1c0.6,0,1.1-0.5,1.1-1.1v-0.4h0.8v3.9h-0.8v-0.4c0-0.6-0.5-1.1-1.1-1.1h-1v3.7h2.5c1.1,0,2-1,2-2v-0.7h0.8v3.6h-8.4L549.6,19.6
	L549.6,19.6z"/>
<path d="M682.4,19c-1.6,0-2.9-1.3-2.9-2.9s1.3-2.9,2.9-2.9c1.6,0,2.9,1.3,2.9,2.9C685.3,17.7,684,19,682.4,19 M682.4,13.4
	c-1.5,0-2.6,1.2-2.6,2.7s1.1,2.6,2.6,2.6s2.6-1.2,2.6-2.7C685,14.6,683.9,13.4,682.4,13.4 M683.1,16.3l0.8,1.2h-0.7l-0.7-1.1h-0.6
	v1.1h-0.6v-3.1h1.4c0.7,0,1.2,0.4,1.2,1C683.8,15.9,683.5,16.2,683.1,16.3 M682.6,15h-0.8v1h0.8c0.4,0,0.6-0.2,0.6-0.5
	C683.2,15.1,682.9,15,682.6,15"/>
<path d="M602.1,26.8c-1.5,0-2.4-0.7-2.7-1.8c-0.8,1.3-2.2,2-3.8,2c-2.5,0-4-1.3-4-3.6c0-4.3,5.9-4.6,7.7-4.6V18
	c0-2.2-0.7-3.3-2.6-3.3c-2.1,0-2.6,1.5-2.8,3.5h-1.6v-3.3c0,0,1.5-1.6,4.5-1.6c3.5,0,5.6,1.4,5.6,4.7v6.6c0,0.5,0.4,1,1,1h0.7v1.3
	h-2L602.1,26.8L602.1,26.8z M599.3,21.9v-1.6c-1.3,0-4.6,0.2-4.6,2.8c0,1.2,0.7,1.9,2,1.9C598.3,25.1,599.3,23.5,599.3,21.9"/>
<path d="M609,20.2c0,3.1,1.4,5,3.8,5c2.6,0,3.6-2.2,3.6-2.2l1.2,0.9c0,0-1.4,3.2-5.4,3.2c-4.3,0-6.6-2.7-6.6-6.9
	c0-4.1,2.1-6.9,6.1-6.9c3.7,0,6.1,2.2,6.1,6.3v0.7C617.8,20.2,609,20.2,609,20.2z M611.7,14.8c-2.2,0-2.7,2-2.7,3.9h5.4
	C614.4,16.3,613.8,14.8,611.7,14.8"/>
<path d="M620.5,25.2c0-1.1,0.8-1.9,1.9-1.9c1.1,0,1.9,0.9,1.9,1.9c0,1.1-0.9,1.9-1.9,1.9C621.3,27.1,620.5,26.3,620.5,25.2"/>
<path d="M634,25.2c2.4,0,3.4-2.2,3.4-2.2l1.2,0.9c0,0-1.4,3.2-5.2,3.2c-4.3,0-6.8-2.7-6.8-6.9c0-4.1,2.6-6.9,6.8-6.9
	c3.2,0,4.8,1.5,4.8,1.5v3.6h-1.5c-0.4-2.1-1.1-3.5-3.2-3.5c-2.3,0-3.4,1.9-3.4,5.3C630,23.3,631.6,25.2,634,25.2"/>
<path d="M647.6,27.1c-4.3,0-7-2.8-7-6.9s2.6-6.9,7-6.9c4.3,0,7,2.8,7,6.9C654.5,24.3,651.9,27.1,647.6,27.1 M647.6,14.7
	c-2.8,0-3.6,2.2-3.6,5.5s0.8,5.5,3.6,5.5s3.6-2.2,3.6-5.5C651.2,16.9,650.4,14.7,647.6,14.7"/>
<path d="M656.2,26.8v-1.3h1.3c0.6,0,1-0.5,1-1v-8.8c0-0.5-0.4-1-1-1h-1.3v-1.3h5.3V15c0.8-1.1,2.1-1.9,3.7-1.9c1.9,0,3.5,1,4.2,2.6
	c0.7-1.5,2.3-2.6,4.2-2.6c2.7,0,4.6,1.9,4.6,4.7v6.6c0,0.5,0.4,1,1,1h1.2v1.3h-7.5v-1.3h1.2c0.6,0,1-0.5,1-1V18
	c0-1.7-1.1-2.9-2.6-2.9c-1.6,0-2.7,1.3-2.7,2.9l0,0v6.4c0,0.5,0.4,1,1,1h1v1.3h-7.1v-1.3h1c0.6,0,1-0.5,1-1V18
	c0-1.7-1.1-2.9-2.7-2.9c-1.6,0-2.6,1.2-2.6,2.8v6.5c0,0.5,0.5,1,1,1h1.2v1.3L656.2,26.8L656.2,26.8z"/>
<path d="M848.5,15.9c-1.6,0-2.9-1.3-2.9-2.9s1.3-2.9,2.9-2.9c1.6,0,2.9,1.3,2.9,2.9S850.2,15.9,848.5,15.9 M848.5,10.3
	c-1.5,0-2.6,1.2-2.6,2.7s1.1,2.6,2.6,2.6s2.6-1.2,2.6-2.7C851.2,11.5,850,10.3,848.5,10.3 M849.2,13.3l0.8,1.2h-0.7l-0.7-1.1H848
	v1.1h-0.6v-3.1h1.4c0.7,0,1.2,0.4,1.2,1C849.9,12.8,849.6,13.2,849.2,13.3 M848.7,11.9h-0.8v1h0.8c0.4,0,0.6-0.2,0.6-0.5
	C849.3,12.1,849.1,11.9,848.7,11.9"/>
<path d="M1236.6,29.9c-1.6,0-2.9-1.3-2.9-2.9s1.3-2.9,2.9-2.9s2.9,1.3,2.9,2.9S1238.2,29.9,1236.6,29.9 M1236.6,24.3
	c-1.5,0-2.6,1.2-2.6,2.7s1.1,2.6,2.6,2.6s2.6-1.2,2.6-2.7C1239.2,25.5,1238.1,24.3,1236.6,24.3 M1237.2,27.3l0.8,1.2h-0.7l-0.7-1.1
	h-0.6v1.1h-0.6v-3.1h1.4c0.7,0,1.2,0.4,1.2,1C1238,26.8,1237.7,27.2,1237.2,27.3 M1236.8,25.9h-0.8v1h0.8c0.4,0,0.6-0.2,0.6-0.5
	S1237.1,25.9,1236.8,25.9"/>
<path d="M753.2,15.9c-1.6,0-2.9-1.3-2.9-2.9s1.3-2.9,2.9-2.9c1.6,0,2.9,1.3,2.9,2.9S754.9,15.9,753.2,15.9 M753.2,10.3
	c-1.5,0-2.6,1.2-2.6,2.7s1.1,2.6,2.6,2.6s2.6-1.2,2.6-2.7C755.9,11.5,754.7,10.3,753.2,10.3 M753.9,13.3l0.8,1.2H754l-0.7-1.1h-0.6
	v1.1h-0.6v-3.1h1.4c0.7,0,1.2,0.4,1.2,1C754.6,12.8,754.3,13.2,753.9,13.3 M753.4,11.9h-0.8v1h0.8c0.4,0,0.6-0.2,0.6-0.5
	C754,12.1,753.8,11.9,753.4,11.9"/>
<path d="M722.1,29.8v-1.5h1.5c0.7,0,1.1-0.6,0.9-1.1l-1.4-3.7h-6.4l-1.4,3.7c-0.2,0.6,0.2,1.1,0.9,1.1h1.4v1.5h-7.3v-1.5h1.2
	c0.7,0,1.4-0.3,1.7-1.1l7-17.5h1.5l6.9,17.5c0.3,0.9,1,1.1,1.7,1.1h1.2v1.5H722.1z M719.8,15.5l-2.5,6.3h5L719.8,15.5z"/>
<path d="M732.1,29.8v-1.5h1.5c0.6,0,1.1-0.5,1.1-1.1V12.6c0-0.6-0.5-1.1-1.1-1.1h-1.5V10h16.7v6.5h-1.5v-0.7c0-2.3-1.8-4.1-4.1-4.1
	h-4.6v7.2h2c1.3,0,2.4-1,2.4-2.3v-0.8h1.5v7.9H743V23c0-1.3-1.1-2.3-2.4-2.3h-2v7.4h5c2.3,0,4.2-1.8,4.2-4.1v-1.4h1.5v7.3h-17.2
	L732.1,29.8L732.1,29.8z"/>
<path d="M783.8,30.1v-1.5h2.3c0.6,0,1.1-0.5,1.1-1.1V14.9H784v-1.5c2.7-0.2,4.6-1.2,5.3-3.2h1.8v17.2c0,0.6,0.5,1.1,1.1,1.1h2.3V30
	L783.8,30.1L783.8,30.1z"/>
<path d="M797.8,28.6c4.7-0.2,7.9-2.6,8.5-6.8c0,0-1,0.8-3.3,0.8c-4.1,0-6.6-2.7-6.6-6.4s2.7-6.3,7.1-6.3c4.4,0,7.1,2.5,7.1,8.3
	c0,7.4-5.1,12.3-12.6,12.3L797.8,28.6z M803.6,20.9c2.6,0,3.4-2,3.4-4.5c0-2.4-0.8-4.5-3.4-4.5c-2.5,0-3.3,2-3.3,4.5
	S801.1,20.9,803.6,20.9"/>
<path d="M816.3,30.1c0,0,1.5-9.6,7.3-16.3h-7.5c-0.6,0-1.1,0.5-1.1,1.1v0.6h-1.5v-5.2h13.6V12c-6.3,8.5-6.9,18.1-6.9,18.1H816.3
	L816.3,30.1z"/>
<path d="M832.7,30.1c0,0,1.5-9.6,7.3-16.3h-7.5c-0.7,0-1.1,0.5-1.1,1.1v0.6h-1.5v-5.2h13.6V12c-6.3,8.5-6.9,18.1-6.9,18.1H832.7
	L832.7,30.1z"/>
<path d="M1072.4,13.2C1072.4,13.2,1072.3,13.2,1072.4,13.2C1072.3,13.2,1072.3,13.3,1072.4,13.2 M1072.3,13
	C1072.3,13.1,1072.2,13,1072.3,13C1072.3,13.1,1072.3,13.1,1072.3,13 M1125.2,14C1125.3,14,1125.2,14,1125.2,14 M1076,30.2
	C1076,30.3,1076,30.3,1076,30.2C1076.1,30.3,1076,30.2,1076,30.2 M1125.3,20.6c-0.8,0.8-1.5,1.5-2.4,2.2c-1.6,1.4-2.8,2.4-4.5,3.6
	s-3.8,2.5-5.7,1.5c-1-0.5-1.8-1.4-2.1-2.4c-0.4-1.4-0.4-2.9-0.5-3c-0.5,0.5-2.2,2.5-2.6,2.9c-0.9,0.9-1.1,1.1-1.6,1.5
	c-0.4,0.4-1.2,1.1-1.7,1.2c-0.6,0.2-1.1,0.3-1.7,0.1c-0.3,0-0.7-0.4-0.9-0.6c-0.4-0.4-0.6-1.1-0.7-1.6c-0.1-1.2,0-1.6-0.3-1.8
	c-0.1,0-2.6,2.5-2.9,2.8c-1.5,1.2-2.5,1.9-3.8,2.7c-0.8,0.5-3.1,0.8-3.9,0.5c-1.5-0.5-1.7-2.2-1.7-3c0-0.5,0-0.9,0.2-1.4
	c0.1-0.5,0.3-1,0.5-1.5c0.4-0.9,1-1.9,1.5-2.8c0.6-1,2.2-3.9,2.4-4.3c0.2-0.4,0.4-0.7,0.5-1.1c0.1-0.5,0.1-0.7-0.5-0.6
	c-0.4,0.1-0.8,0.1-1.1,0.2c-0.4,0.2-0.6,0.6-0.8,1c-0.3,0.5-0.7,1-1,1.4c-0.4,0.4-2.7,3-3,3.5c-0.3,0.4-3,3.4-3.8,4
	c-0.4,0.3-1.2,1.1-1.6,1.4c-0.5,0.4-0.9,0.6-1.4,0.9c-0.4,0.2-1.3,0.8-1.7,1c-4.8,2.4-5.8,1-6.1,0.8c-1.6-1.3-1.5-4.6-1.8-4.6
	c-0.4,0.1-2.2,1.9-2.6,2.4c-0.2,0.2-1.6,1.9-1.9,2.2c-0.8,0.6-1.8,0.3-2.2-0.7c-0.5-1.2-0.2-2.5-0.4-2.6c-0.2,0.1-0.9,0.8-1.1,1
	s-1.8,2-2.4,2.3c-0.7,0.4-1,0.8-2,0.5c-0.4-0.1-0.7-0.7-1-1c-0.4-0.4-0.9-2.3-0.5-3.7c0.3-1.1,0.6-2.6,1.1-3.5
	c0.8-1.4,1.3-2.3,2.3-3.6c0.4-0.6,2.7-2.8,3.3-3.2c0.7-0.5,1.4-1.1,2.2-1.6c0.6-0.4,0.9-0.6,1.6-0.7c0.4-0.1,1.3-0.1,2.7,0.8
	c0.2,0.1,0.2-0.1,0.4-0.3c0.6-0.6,1.3-0.8,2.3-0.6c0.4,0.1,0.3,1,0.2,1.4c-0.3,2-1.5,3.5-2.7,5c-1.4,1.9-2.8,3.9-3.8,6
	c-0.3,0.8-0.9,2.3-0.7,3.2c0.1,0.3,1-0.6,1.1-0.7c0.3-0.4,0.8-0.9,1.1-1.3c0.6-0.8,1.5-1.8,2-2.5c0.6-0.6,1.6-1.6,2.2-2.3
	c1.5-1.9,2.4-3.1,3.9-4.8c0.4-0.4,1.3-1.4,2-1.8c0.4-0.3,1.1-0.7,1.6-1.1c0.9-0.7,1.4-1,2.4-1.6c4.1-2.4,5.1-1.3,5.3-1
	c0.2,0.3,0.3,0.7,0.3,1c0.1,0.8-0.1,1.9-0.4,2.6c-0.4,0.9-1.3,1.9-2.1,2.6c-0.7,0.6-1.3,1.1-2,1.7c-1,0.8-2.1,1.4-3,2
	s-1.6,1.2-2.4,1.9c-0.8,0.7-1.4,1.6-2,2.4c-0.4,0.5-0.9,2.1,0.2,2c1-0.1,2.5-0.3,4.6-1.7c2.1-1.4,3.4-2.7,4.3-3.5
	c0.8-0.7,3.2-3.2,4-4.1c0.7-0.8,1.5-1.6,1.9-2.6c0.3-0.7-1.3-1.5-1.3-2.7c0-0.4,0.2-0.6,0.3-1c0.9-2,3.2-1,3.3-0.3
	c0,0.2,0.1,0.4,0.1,0.6c0,0.2-0.1,1.2,0.2,1.2c0.5,0.1,1-0.2,1.5-0.2c0.6,0,1.2,0,1.8-0.1c0.7,0,1.7,0.2,2.1,0.8
	c0,0.1,0.6,1,0.1,1.9c-0.5,0.8-1.6,2.4-1.9,2.8c-0.6,0.7-0.7,0.8-1.3,1.6c-1.3,1.8-2.2,2.7-3.3,4.8c-0.5,0.9-1,1.7-1,2.7
	c0,0.4,0.2,0.8,0.5,1s0.9,0.1,1.5-0.1c0.4-0.2,0.9-0.5,1.4-0.8c0.4-0.3,1.3-1.1,1.7-1.4c0.7-0.6,0.9-0.7,1.6-1.3
	c0.8-0.7,1.4-1.4,2.1-2.2c0.7-0.7,1.3-1.4,1.8-2.2c0.6-1,1.1-1.7,1.7-2.6c0.3-0.4,0.5-0.9,0.7-1.3c0.2-0.5,2.4-3.6,2.8-3.9
	c0.6-0.7,1.1-1.4,1.9-2c0.3-0.2,0.6-0.3,0.9-0.4c0.4-0.2,0.7-0.3,1.1-0.2c0.6-0.1,1.3,0.4,0.8,1.1c-0.9,1.5-1.8,3.1-2.7,4.6
	c-0.6,1-1.3,2-1.9,3c-0.6,0.9-1,1.9-1.5,2.8c-0.3,0.5-0.6,1.1-0.8,1.7c-0.1,0.3-0.4,1-0.1,1.3c0.5,0.6,1.7-0.1,2.1-0.5
	c0.8-0.6,1.8-1.6,2.5-2.3c0.5-0.6,2.2-2.7,2.7-3.4c1.7-2.4,6-5.9,6.4-6.1c1.3-1,3.2-2.2,4.3-2.7c0.7-0.3,1.9-1.1,2.8-1
	c1,0.2,1.4,0.9,1.5,1.7c0.1,1.2-0.3,1.8-0.4,2.2c-0.7,1.9-2.6,3.6-4.2,4.8c-1.7,1.4-3.6,2.2-5.4,3.4c-0.5,0.3-1.1,0.8-1.5,1.3
	c-0.4,0.4-1.5,1.5-1.3,3.6c0.1,1.2,3.6-0.5,4.1-1.1c0.2-0.2,2.8-2.3,4.3-3.8c0.8-0.9,1.5-1.9,2.4-2.6c0.3-0.3,1.2-0.7,1.7-0.2
	C1127.1,18.7,1125.9,20,1125.3,20.6 M1125.2,14C1125.3,14,1125.2,14,1125.2,14 M1118.2,17.2c0.7-0.4,1.4-0.9,2-1.4s1.2-1.1,1.8-1.6
	c0.8-0.6,1.4-1.3,1.4-2c0.1-1-3.2,1.3-3.5,1.6c-1.1,0.9-2.6,1.7-3,3.1C1116.9,17.3,1117.7,17.5,1118.2,17.2 M1078.1,18.8
	c0.1,0.3,1.6-0.4,2-0.7c0.6-0.4,1.2-1,1.8-1.4c0.5-0.4,1-0.8,1.5-1.2c0.6-0.5,1.1-0.9,1-1.9c0-0.4-1.4,0.4-1.6,0.5
	C1078.2,17.1,1077.9,18.6,1078.1,18.8 M1065.2,21.5c0,0,1.3-2,1.6-2.7c0.2-0.4,0.6-1.6,0.7-1.8c0.3-0.8,0.5-1.2,0.1-2
	c-0.2-0.4-1.1-0.1-1.3,0.2c-0.5,0.6-1.1,1.2-1.5,1.8c-0.5,0.7-0.9,1.1-1.3,1.6c-0.6,0.8-1.2,1.6-1.7,2.5c-0.2,0.3-0.5,0.7-0.6,1.1
	c-0.1,0.3-0.7,1.1-0.8,1.4c-0.5,0.8-0.9,1.6-1.3,2.4c-0.4,0.7-0.8,1.6-1,2.4c-0.1,0.8,0,1.9,0.8,1.4c0.3-0.2,0.8-0.5,1.1-0.8
	c0.3-0.3,1-0.9,1.3-1.2c0.7-0.9,1.2-1.6,1.7-2.4C1063.8,23.6,1064.3,22.9,1065.2,21.5 M1112.6,6.6c0.1,0.1,0.8,0.1,1,0.1
	c0.4,0,0.9-0.7,1.1-1c0.3-0.4,0.7-0.8,1-1.3c0.3-0.6,0.6-1,0.6-1.7c0-0.5-0.3-0.8-0.7-0.8c-1.1,0.6-2.4,1.8-3,3.1
	C1112.5,5.4,1112.2,6.3,1112.6,6.6 M1131,23c0-1.4-1.1-2.5-2.5-2.5s-2.5,1.1-2.5,2.5s1.1,2.5,2.5,2.5S1131,24.4,1131,23 M1130.6,23
	c0,1.2-1,2.1-2.1,2.1c-1.2,0-2.1-1-2.1-2.1c0-1.2,1-2.1,2.1-2.1C1129.7,20.8,1130.6,21.8,1130.6,23 M1129.6,24
	c0-0.1-0.1-0.1-0.2-0.2h-0.1c0-0.2-0.1-0.5-0.1-0.7c0-0.1,0-0.1-0.1-0.1l0,0l0,0l0,0c0,0,0.1,0,0.1-0.1c0.2-0.2,0.2-0.2,0.2-0.5
	c0-0.7-0.6-0.8-1-0.8c-0.1,0-0.4,0-0.5,0s-0.2,0-0.3,0s-0.2,0.1-0.2,0.2s0.2,0.2,0.3,0.2c0,0,0,0,0.1,0v0.4c0,0,0,0.1,0,1.1
	c0,0.1,0,0.2,0,0.3c-0.1,0-0.3,0-0.3,0.2c0,0.1,0.4,0.2,0.4,0.2h0.3c0.1,0,0.2,0,0.3-0.1V24c-0.1-0.1-0.2-0.1-0.3-0.1l0,0v-0.2
	c0-0.2,0,0.1,0-0.6l0,0h0.5c0.1,0.1,0.1,0.2,0.2,0.3c0,0.1,0,0.2,0,0.3c0,0.2,0,0.4,0.1,0.6c0,0.1,0.1,0.1,0.2,0.1c0,0,0.2,0,0.3,0
	C1129.6,24.2,1129.6,24.1,1129.6,24 M1129.1,22.3c0,0.4-0.4,0.4-0.6,0.4c0,0-0.2,0-0.3,0v-0.1c0-0.1,0-0.2,0-0.3v-0.2l0.2-0.1
	c0.1,0,0.1,0,0.2,0C1128.9,22,1129.1,22.1,1129.1,22.3"/>
<path class="st0" d="M245.8,29.9l0.8-2.2h0.9v3.1h-0.6v-2.4l0,0l-0.9,2.4h-0.4l-0.9-2.4l0,0v2.4h-0.6v-3.1h0.9L245.8,29.9z
	 M243.5,28.2h-1v2.6h-0.6v-2.6H241v-0.5h2.5V28.2z"/>
<path class="st1" d="M229.6,24.5l0.8-0.8l0.8,0.8l-0.8,0.8L229.6,24.5z M228.6,23.5l0.8-0.8l0.8,0.8l-0.8,0.8L228.6,23.5z
	 M215.7,10.5l-0.3,0.3L228,23.4l-1.7,1.7l0.3,0.3l1.7-1.6l0.8,0.8l-4.4,4.4l0.3,0.3l4.4-4.4l0.7,0.7l-1.4,1.4l0.3,0.3l1.4-1.4
	l3.5,3.5l0.3-0.3l-3.5-3.5l0.8-0.8l6,6l0.3-0.3l-6-6l2.3-2.3l-0.3-0.3l-2.3,2.3l-0.8-0.8l11.6-11.6l-0.3-0.3l-11.6,11.6l-0.8-0.8
	l8.2-8.2l-0.3-0.3l-8.2,8.2l-8.9-8.9l-0.3,0.3l8.9,8.9l-0.8,0.8L215.7,10.5z"/>
<rect x="223.1" y="16.3" transform="matrix(0.7071 -0.7071 0.7071 0.7071 50.9005 163.9187)" class="st1" width="0.5" height="8.4"/>
<g>
	<g>
		<g>
			<g>
				<g>
					<g>
						<defs>
							<rect id="SVGID_1_" x="2.5" y="14" width="190.1" height="12.1"/>
						</defs>
						<clipPath id="SVGID_2_">
							<use xlink:href="#SVGID_1_"  style="overflow:visible;"/>
						</clipPath>
						<path class="st2" d="M10.6,22.7H5.9l-1.4,3.2h-2l5.1-11.6h1.2c1,2.4,5.1,11.6,5.1,11.6H12L10.6,22.7z M10,21.1L8.3,17
							l-1.8,4.1H10z"/>
					</g>
				</g>
			</g>
		</g>
		<g>
			<g>
				<g>
					<g>
						<defs>
							<rect id="SVGID_3_" x="2.5" y="14" width="190.1" height="12.1"/>
						</defs>
						<clipPath id="SVGID_4_">
							<use xlink:href="#SVGID_3_"  style="overflow:visible;"/>
						</clipPath>
						<path class="st3" d="M143.6,22.7h-4.8l-1.4,3.2h-2l5.1-11.6h1.2c1,2.4,5.1,11.6,5.1,11.6h-2L143.6,22.7z M143,21.1l-1.7-4.1
							l-1.7,4.1C139.5,21.1,143,21.1,143,21.1z"/>
					</g>
				</g>
			</g>
		</g>
	</g>
	<polygon class="st0" points="36.1,14.3 36.1,25.8 42.6,25.8 42.6,24.3 37.9,24.3 37.9,20.4 42.4,20.4 42.4,18.7 37.9,18.7 
		37.9,15.9 42.6,15.9 42.6,14.3 	"/>
	<g>
		<g>
			<g>
				<g>
					<g>
						<defs>
							<rect id="SVGID_5_" x="2.5" y="14" width="190.1" height="12.1"/>
						</defs>
						<clipPath id="SVGID_6_">
							<use xlink:href="#SVGID_5_"  style="overflow:visible;"/>
						</clipPath>
						<path class="st4" d="M52.3,21l3.6,5h-2.2l-3.3-4.8h-0.3V26h-1.7V14.3h2.1c1.6,0,2.6,0.3,3.3,0.9c0.8,0.6,1.1,1.5,1.1,2.5
							c0,0.8-0.3,1.6-0.7,2.1C53.7,20.4,53.1,20.8,52.3,21 M50.1,19.6h0.5c1.7,0,2.5-0.6,2.5-1.9c0-1.2-0.8-1.8-2.4-1.8h-0.6V19.6z"
							/>
					</g>
				</g>
			</g>
		</g>
	</g>
	<rect x="61.2" y="14.3" class="st0" width="1.7" height="11.7"/>
	<g>
		<g>
			<g>
				<g>
					<g>
						<defs>
							<rect id="SVGID_7_" x="2.5" y="14" width="190.1" height="12.1"/>
						</defs>
						<clipPath id="SVGID_8_">
							<use xlink:href="#SVGID_7_"  style="overflow:visible;"/>
						</clipPath>
						<path class="st5" d="M77.5,14.9V17c-1-0.9-2.1-1.3-3.1-1.3c-1.2,0-2.2,0.4-3,1.3s-1.2,1.9-1.2,3.1s0.4,2.3,1.2,3
							c0.8,0.9,1.8,1.2,3,1.2c0.6,0,1.1-0.1,1.6-0.3c0.3-0.1,0.5-0.3,0.8-0.4c0.3-0.2,0.5-0.3,0.8-0.6v2.1c-1,0.6-2.1,0.9-3.1,0.9
							c-1.7,0-3-0.6-4.3-1.7c-1.1-1.1-1.7-2.6-1.7-4.3c0-1.5,0.5-2.8,1.5-3.9c1.2-1.4,2.8-2.1,4.7-2.1C75.5,14,76.5,14.3,77.5,14.9"
							/>
					</g>
				</g>
			</g>
		</g>
	</g>
	<polygon class="st0" points="124.6,14.3 124.6,25.8 131,25.8 131,24.3 126.3,24.3 126.3,20.4 130.8,20.4 130.8,18.7 126.3,18.7 
		126.3,15.9 131,15.9 131,14.3 	"/>
	<g>
		<g>
			<g>
				<g>
					<g>
						<defs>
							<rect id="SVGID_9_" x="2.5" y="14" width="190.1" height="12.1"/>
						</defs>
						<clipPath id="SVGID_10_">
							<use xlink:href="#SVGID_9_"  style="overflow:visible;"/>
						</clipPath>
						<path class="st6" d="M156.4,19.8h4.8v0.3c0,0.9-0.1,1.7-0.3,2.4c-0.2,0.6-0.5,1.2-1,1.7c-1,1.2-2.4,1.8-4.1,1.8
							s-3-0.6-4.2-1.7c-1.1-1.2-1.7-2.6-1.7-4.3s0.6-3.1,1.7-4.3c1.2-1.2,2.6-1.7,4.3-1.7c0.9,0,1.7,0.2,2.5,0.5s1.5,1,2.3,1.8
							l-1.2,1.2c-1-1.3-2.1-1.9-3.5-1.9c-1.2,0-2.3,0.4-3.1,1.3c-0.9,0.9-1.2,1.9-1.2,3.1c0,1.3,0.4,2.4,1.4,3.2
							c0.9,0.8,1.8,1.1,2.8,1.1c0.9,0,1.7-0.3,2.4-0.9s1-1.3,1.1-2.1h-2.9L156.4,19.8L156.4,19.8z"/>
					</g>
				</g>
			</g>
		</g>
	</g>
	<polygon class="st0" points="166.5,14.3 166.5,25.8 171.7,25.8 171.7,24.3 168.3,24.3 168.3,14.3 	"/>
	<polygon class="st0" points="177.1,14.3 177.1,25.8 183.4,25.8 183.4,24.3 178.8,24.3 178.8,20.4 183.3,20.4 183.3,18.7 
		178.8,18.7 178.8,15.9 183.4,15.9 183.4,14.3 	"/>
	<g>
		<g>
			<g>
				<g>
					<g>
						<defs>
							<rect id="SVGID_11_" x="2.5" y="14" width="190.1" height="12.1"/>
						</defs>
						<clipPath id="SVGID_12_">
							<use xlink:href="#SVGID_11_"  style="overflow:visible;"/>
						</clipPath>
						<path class="st7" d="M90.2,22.7h-4.8L84,25.9h-2l5.1-11.6h1.2c1,2.4,5.1,11.6,5.1,11.6h-2L90.2,22.7z M89.5,21.1L87.8,17
							l-1.7,4.1C86,21.1,89.5,21.1,89.5,21.1z"/>
					</g>
				</g>
			</g>
		</g>
	</g>
	<polygon class="st0" points="28.3,14.2 24.5,22.4 20.8,14.2 20.4,14.2 18,25.8 19.8,25.8 21.1,18.9 24.2,25.8 24.7,25.8 27.8,18.9 
		29,25.8 30.8,25.8 28.7,14.2 	"/>
	<polygon class="st0" points="98.1,14.2 98.1,25.8 99.8,25.8 99.8,17.7 108,25.8 108.6,25.8 108.6,14.3 106.9,14.3 106.9,22.4 
		98.7,14.2 	"/>
</g>
<path d="M191.5,19.4c-1.6,0-2.9-1.3-2.9-2.9s1.3-2.9,2.9-2.9c1.6,0,2.9,1.3,2.9,2.9S193.1,19.4,191.5,19.4 M191.5,13.9
	c-1.5,0-2.6,1.2-2.6,2.7s1.1,2.6,2.6,2.6s2.6-1.2,2.6-2.7S193,13.9,191.5,13.9 M192.1,16.8l0.8,1.2h-0.7l-0.7-1.1h-0.6V18h-0.6v-3.1
	h1.4c0.7,0,1.2,0.4,1.2,1C192.8,16.4,192.6,16.7,192.1,16.8 M191.6,15.4h-0.8v1h0.8c0.4,0,0.6-0.2,0.6-0.5
	C192.2,15.6,192,15.4,191.6,15.4"/>
<path d="M1161.8,31.8l0.5-2.4h-1.4l3.9-21.4l1.2,0.2l0.3-1.6l31.9,2.3l35.1-3.5l-0.5,2.4h1.3l-3.9,21.4L1229,29l-0.3,1.6l-31.8-2.3
	L1161.8,31.8z"/>
<path class="st8" d="M1229.5,10.1l0.4-2.3l-31.7,3.5L1168.5,9l-0.4,2l-1.3-0.2l-2.9,16.3h1.5l-0.4,2.3l31.9-3.5l29.5,2.3l0.4-2
	l1.3,0.2l2.9-16.3L1229.5,10.1z"/>
<polygon points="1227.6,11.6 1228,9.5 1198.1,12.7 1198,12.7 1169.7,10.6 1169.4,12.6 1168,12.4 1165.7,25.5 1167.2,25.5 
	1166.8,27.6 1196.8,24.3 1225.1,26.5 1225.5,24.4 1226.8,24.7 1229.1,11.6 "/>
<g>
	<path class="st8" d="M1177.6,17.2l-2-2.8l43.6-0.5l-32.8,2.3c0,0-1.3,0.1-1.8,0.5c-0.4,0.3-1.9,2.4-2.2,2.8l-3.1,4l-2.1,0.2l5.1-7
		c0,0,0.1-0.1,0.1-0.2h-0.1L1177.6,17.2z"/>
	<path class="st8" d="M1187.3,19.6l0.4-0.4l1.5-0.2c0,0-1.6,1.9-2,2.5s1.2,0,1.2,0l-0.2,0.5c0,0-1.6,0.8-2.1,0.8
		c-1.1,0.1-0.1-1.1-0.4-1.1s-1.9,1.4-3.2,1.5c-0.6,0.1-0.8-0.4-0.3-1.4c0.9-1.6,3.3-2.4,3.3-2.4L1187.3,19.6z M1186.9,20
		c-0.1-0.1-2.4,0.5-3.1,1.7c-0.5,0.8,0.8,0.4,1.5-0.1C1186.3,20.9,1187,20.1,1186.9,20"/>
	<path class="st8" d="M1191.9,18.6l-1.7,2.1c-0.3,0.4-0.5,0.8-0.1,0.8c0.3,0,1.7-0.7,1.7-0.7v0.5c0,0-2.1,1-2.8,1
		c-0.7,0.1-0.9-0.5-0.6-1c0.6-1,2.1-2.6,2.1-2.6L1191.9,18.6z"/>
	<path class="st8" d="M1196.8,16l-3.1,4.1c-0.4,0.5-1,1.3-0.5,1.2c0.5-0.1,2.2-0.9,2.2-0.9l0.1,0.5c0,0-2.2,1.1-3.1,1.2
		c-0.8,0.1-1.3-0.2-0.8-1.1c0.3-0.5,0.6-0.8,0.9-1.2l2.8-3.7L1196.8,16z"/>
	<path class="st8" d="M1195.3,22.1c0,0-0.7,0.8,0.4,0.8c1.2-0.2,3.4-2.8,3.4-2.8c-0.4,0-1.7,1.4-3.2,1.6c-0.8,0.1-0.9-0.6-0.5-1.2
		c1-1.8,3.6-2.7,3.6-2.7l1.6,0.2l-0.2,0.3c0,0.1-2.4,0.6-3.1,1.9c-0.4,0.7,0.1,0.6,0.3,0.6c1.7-0.4,3.8-3,3.8-3l1.4-0.2l-2.8,3.5
		c-1.2,1.5-2.7,2.6-4.4,2.8c-2.2,0.3-0.6-1.6-0.6-1.6h0.3L1195.3,22.1L1195.3,22.1z"/>
	<path class="st8" d="M1206.7,17.4l0.4-0.4l1.5-0.2c0,0-1.6,1.9-2,2.5c-0.3,0.6,1.3-0.1,1.3-0.1l-0.3,0.5c0,0-1.7,0.8-2.3,0.8
		c-1.1,0.1-0.1-1.1-0.4-1.1s-1.9,1.4-3.2,1.5c-0.6,0.1-0.8-0.4-0.3-1.4c0.9-1.6,3.3-2.4,3.3-2.4L1206.7,17.4z M1206.3,17.8
		c-0.1-0.1-2.3,0.5-3.1,1.7c-0.5,0.8,0.8,0.4,1.5-0.1C1205.5,18.7,1206.3,17.9,1206.3,17.8"/>
	<path class="st8" d="M1212.4,15.3c0,0-0.4,0.4-0.8,0.8c-0.2,0.3,0,0.2,0.2,0.2l1.3-0.1l-0.5,0.6c0,0-0.9,0.1-1.5,0.4
		c-0.8,0.5-1.4,1-1.8,1.7c-0.2,0.4-0.3,0.7,0.3,0.6c0.7-0.1,2.3-0.7,2.3-0.7l0.3,0.4c0,0-2.3,1-3.7,1.1c-0.6,0.1-1.3-0.2-0.8-1
		c0.4-0.8,1-1.3,1.5-2c0.1-0.1-0.3-0.1-0.5-0.1l0.5-0.7l0.7-0.1l0.9-1.1L1212.4,15.3z"/>
	<path class="st8" d="M1214.6,17.6c0,0,1.7-0.2,2.1-0.8c0.3-0.5,0-0.6-0.3-0.5c-0.9,0.1-2.1,1-2.5,1.9c-0.4,0.8,0,0.9,0.6,0.8
		c0.9-0.1,2.1-0.8,2.1-0.8l0.2,0.5c0,0-1.3,0.8-3,0.9c-1.4,0.2-2-0.3-1.4-1.3c0.8-1.4,2.9-2.3,4.4-2.5c0.9-0.1,1.8,0.2,1.3,1.1
		c-0.1,0.3-0.5,0.7-0.5,0.7l-3.1,0.4L1214.6,17.6z"/>
	<polygon class="st8" points="1192.1,17 1192.9,17.1 1192.1,17.5 1192,18.2 1191.5,17.7 1190.7,18.1 1191.3,17.4 1190.9,17 
		1191.6,17 1192.2,16.4 	"/>
</g>
<polygon points="879.2,27 879.2,11.7 882.2,11.7 882.2,24.3 889.1,24.3 889.1,27 "/>
<rect x="890.9" y="11.7" width="3" height="15.3"/>
<polygon points="913.9,27 913.9,11.7 924,11.7 924,14.4 916.9,14.4 916.9,18 922.9,18 922.9,20.6 916.9,20.6 916.9,24.3 924,24.3 
	924,27 "/>
<polygon points="935.9,20.7 935.9,27 933,27 933,20.7 928.4,11.7 931.6,11.7 934.5,17.9 937.3,11.7 940.5,11.7 "/>
<path d="M950.2,25.4c-1.1,1.1-2.4,1.7-4.1,1.7c-1.7,0-3.1-0.6-4.1-1.7c-1.5-1.5-1.5-3.5-1.5-6.1s0-4.5,1.5-6.1
	c1.1-1.1,2.4-1.7,4.1-1.7c1.7,0,3,0.6,4.1,1.7c1.5,1.5,1.5,3.4,1.5,6.1S951.8,23.9,950.2,25.4 M948,15.1c-0.4-0.5-1.1-0.8-1.9-0.8
	c-0.8,0-1.5,0.3-1.9,0.8c-0.6,0.6-0.7,1.3-0.7,4.3c0,2.9,0.2,3.6,0.7,4.3c0.4,0.5,1.1,0.8,1.9,0.8c0.8,0,1.5-0.3,1.9-0.8
	c0.6-0.6,0.8-1.4,0.8-4.3C948.8,16.4,948.6,15.7,948,15.1"/>
<path d="M959.3,27.1c-3.1,0-5.6-2.1-5.6-5.4v-10h3v9.9c0,1.8,1,2.8,2.6,2.8s2.7-1,2.7-2.8v-9.9h3v10C964.9,25,962.4,27.1,959.3,27.1
	"/>
<path d="M975.1,27l-3-6.1H970V27h-3V11.7h6c3.1,0,5,2.1,5,4.7c0,2.1-1.3,3.5-2.8,4l3.4,6.6H975.1z M972.8,14.4H970v4h2.8
	c1.3,0,2.2-0.8,2.2-2C974.9,15.2,974.1,14.4,972.8,14.4"/>
<polygon points="986,27 986,11.7 988.9,11.7 988.9,24.3 995.9,24.3 995.9,27 "/>
<rect x="997.5" y="11.7" width="3" height="15.3"/>
<polygon points="1005.5,14.4 1005.5,18.1 1011.5,18.1 1011.5,20.8 1005.5,20.8 1005.5,27 1002.5,27 1002.5,11.7 1012.6,11.7 
	1012.6,14.4 "/>
<polygon points="1014.2,27 1014.2,11.7 1024.2,11.7 1024.2,14.4 1017.2,14.4 1017.2,18 1023.2,18 1023.2,20.6 1017.2,20.6 
	1017.2,24.3 1024.2,24.3 1024.2,27 "/>
<path d="M1026.2,12.1v1.2h-0.3v-1.2h-0.4v-0.2h1v0.2H1026.2z M1027.9,13.3v-1l-0.3,0.6h-0.2l-0.3-0.6v1h-0.3v-1.5h0.3l0.4,0.8
	l0.4-0.8h0.3v1.5H1027.9z"/>
<path d="M911.4,14.5c0.7,0,1.6-0.3,1.9-0.6c-0.3,0.6-0.7,1-1.7,1.3c-0.3,0.1-0.3,0.3,0.1,0.3c0.4,0,0.9-0.3,1-0.4
	c-0.2,0.3-0.4,0.6-1.4,0.8c-0.2,0.1-0.1,0.4,0.4,0.2c-0.1,0.2-0.4,0.3-0.7,0.3c-0.3,0.1-0.2,0.3,0.3,0.2c-0.3,0.2-0.7,0.3-1,0.3
	c-0.2,0,0,0.3,0.5,0.2c-0.3,0.1-0.4,0.2-0.9,0.3h-0.1c-0.4,0-0.9,0.1-1.1,0.4c-0.4,0.4-0.7,1.4-1,2c-0.2,0.6-1.4,2.5-2.8,2.2
	c0.1,0.2,0.1,0.4,0.2,0.5c0.1,0.4,0.6,1.4,1.5,2.1c0.8,0.5,1.2,0.7,1.2,1.2c0,0.2-0.1,0.2-0.3,0.2c-0.1,0-0.3,0-0.3,0.2
	s-0.1,0.2-0.3,0.2s-0.3,0-0.4,0.1c-0.1,0.1-0.1,0.1-0.2,0.1c-0.1,0-0.2,0-0.3,0.1s-0.2,0.1-0.4,0c-0.1-0.1-0.3-0.1-0.4,0
	c-0.1,0.1-0.3,0-0.4-0.1c-0.1-0.1-0.2-0.1-0.3-0.1s-0.2,0-0.3-0.1s-0.1-0.1-0.3-0.1s-0.3-0.1-0.4-0.3c0-0.1-0.1-0.2-0.2-0.2
	c-0.1,0-0.2,0-0.3-0.1c0-0.1,0-0.3,0.1-0.4c0.1-0.2,0.4-0.5,0.4-0.8s-0.5-0.1-0.6,0.5c0,0-0.1,0-0.1-0.2c-0.1,0.3-0.2,0.6-0.2,0.7
	c-0.1-0.1-0.1-0.3-0.1-0.3s-0.4,0.3-0.5,0.7c-0.1-0.4-0.2-0.3-0.2-0.3s0,0-0.1,0.1c-0.1,0.2,0,0.5,0.1,0.5s0.3,0.1,0.4,0.2
	c0.1,0.1,0.3,0.4,0,0.6c0.1-0.1,0-0.3-0.1-0.3c-0.2,0-0.5-0.1-0.5-0.2c-0.1-0.1-0.4,0-0.5,0c-0.2,0-0.4,0.3-0.4,0.5
	c-0.1-0.1-0.2-0.3-0.1-0.5c-0.1,0-0.3,0.1-0.3,0.2c-0.1,0-0.2-0.2,0-0.4c-0.1,0-0.3,0.1-0.3,0.2c-0.4-0.5,0.6-0.6,0.9-0.7
	c0-0.1-0.1-0.2-0.1-0.2c-0.1,0-0.4-0.2-0.5-0.3c-0.4-0.2-0.7-0.2-0.7,0c0-0.1-0.1-0.3,0.1-0.4c-0.1,0-0.3,0-0.4,0.1
	c0,0,0-0.3,0.2-0.4c-0.1-0.1-0.4,0-0.5,0c0.3-0.6,1,0,1.3,0c0.2,0.1,0.4-0.2,0.4-0.5c0.1-0.2,0.1-0.3,0.1-0.5c0-0.1,0.1-0.1,0.1-0.2
	c0,0,0-0.1,0.1-0.1c0-0.1,0.1-0.3,0.1-0.4c0.2-0.5,0.4-1.1,0-1.5c-0.3-0.3-0.7-0.3-1-0.3c-0.1,0-0.4,0.1-0.6,0.1
	c-0.2,0.1-0.4,0.1-0.5,0.2c0-0.1,0-0.2,0.1-0.2c-0.1-0.1-0.3,0.1-0.3,0.4c-0.3-0.4-0.2-0.8,0-0.9c-0.2-0.4,0.3-0.8,0.6-0.9
	s1.1-0.3,0.9-0.9c-0.1-0.3-0.3-0.7-0.6-0.9c-0.5-0.5-1.1-0.9-1.7-1.2c-0.6-0.3-1.1-0.5-1.7-0.7c-0.1-0.1-0.3-0.2-0.4-0.2
	c0.3,0,0.5,0,0.3-0.1s-0.5-0.4-0.7-0.6c0.3,0.1,0.6,0.1,0.4,0c-0.2-0.1-0.6-0.5-0.8-0.9c0.3,0.2,0.7,0.4,0.6,0.2
	c-0.1-0.1-1.1-1.1-0.6-2.5c0,0.9,0.2,0.9,0.3,1c-0.2-0.9,0-1.7,0.1-2c0,0.9,0.1,1.1,0.3,1.3c-0.1-1,0.1-1.6,0.3-1.7
	c-0.1,1,0,2.1,1,2.7c0-0.2,0-0.4,0-0.4s0,0.3,0.3,0.5c0.3,0.3,1.3,0.9,2.1,1.5s1.4,1.1,1.8,2.1c0.5,1,1,1.9,1.4,2.2
	c0,0,1.2,0,1.7-2.5c0.2-1,1.1-2.4,2.7-3.1c1.3-0.5,3.1-1.4,3.6-2.2c0,0.4-0.2,0.9-0.6,1.2c0.8-0.2,1.8-1,2.2-1.7
	c-0.1,0.7-0.8,1.7-1.6,2.1c1.2-0.3,2.3-1.2,2.5-1.7c0.1,0.6-0.9,1.8-1.6,2c0.8-0.1,1.5-0.4,1.9-0.9C913.2,13.4,912.7,14,911.4,14.5
	 M901.3,25.1c0-0.1-0.4,0-0.6,0.3c0.1,0.1,0.2,0.3,0.2,0.4s0,0.2,0,0.2C901.4,25.8,901.3,25.2,901.3,25.1"/>
</svg>
